<?xml version="1.0" encoding="utf-8"?>
<!-- Generator: Adobe Illustrator 15.1.0, SVG Export Plug-In . SVG Version: 6.00 Build 0)  -->
<!DOCTYPE svg PUBLIC "-//W3C//DTD SVG 1.1//EN" "http://www.w3.org/Graphics/SVG/1.1/DTD/svg11.dtd">
<svg version="1.1"
	 id="svg2" xmlns:inkscape="http://www.inkscape.org/namespaces/inkscape" sodipodi:docname="New document 1" inkscape:version="0.48.2 r9819" xmlns:cc="http://creativecommons.org/ns#" xmlns:dc="http://purl.org/dc/elements/1.1/" xmlns:sodipodi="http://sodipodi.sourceforge.net/DTD/sodipodi-0.dtd" xmlns:rdf="http://www.w3.org/1999/02/22-rdf-syntax-ns#" xmlns:svg="http://www.w3.org/2000/svg"
	 xmlns="http://www.w3.org/2000/svg" xmlns:xlink="http://www.w3.org/1999/xlink" x="0px" y="0px" width="1000px" height="1000px"
	 viewBox="0 0 1000 1000" enable-background="new 0 0 1000 1000" xml:space="preserve">
<sodipodi:namedview  bordercolor="#666666" showgrid="false" inkscape:current-layer="layer1" inkscape:window-width="1920" inkscape:cy="-8.1858472" inkscape:pageshadow="2" inkscape:zoom="0.49497475" borderopacity="1.0" pagecolor="#ffffff" inkscape:document-units="px" fit-margin-right="0.5" inkscape:window-maximized="1" inkscape:window-y="-8" inkscape:cx="1268.2181" fit-margin-bottom="0.5" inkscape:pageopacity="0.0" inkscape:window-x="-8" fit-margin-top="0.5" id="base" fit-margin-left="0.5" inkscape:window-height="1028">
	<inkscape:grid  type="xygrid" visible="true" empspacing="5" enabled="true" id="grid2996" snapvisiblegridlinesonly="true">
		</inkscape:grid>
</sodipodi:namedview>
<g id="layer1" transform="translate(-39.499999,287.13782)" inkscape:groupmode="layer" inkscape:label="Layer 1">
	<g id="g3005" transform="matrix(1.7404181,0,0,1.7404181,-29.616725,-527.44586)">
		<path id="rect3000" inkscape:connector-curvature="0" sodipodi:nodetypes="ssssscccssss" fill="#3B5998" d="M71,138.362h512
			c17.174,0,31,13.826,31,31v512c0,17.174-13.826,31-31,31H436.5l-45.82,0.287l-44.18-0.287H71c-17.174,0-31-13.826-31-31v-512
			C40,152.188,53.826,138.362,71,138.362z"/>
		<path id="path3002" inkscape:connector-curvature="0" sodipodi:nodetypes="ccccccccccccccccc" fill="#FFFFFF" d="M346.5,712.362
			v-222.5h-75v-86.5h75v-66c0-69.186,42.892-112.189,110.454-112.189c40.67,0,68.046,3.189,68.046,3.189v78h-45.821
			c-29.037,0-42.678,10.213-42.678,41v56H522l-11,86.5h-74.5v222.5H346.5z"/>
	</g>
</g>
</svg>
