<?xml version="1.0" encoding="utf-8"?>
<!-- Generator: Adobe Illustrator 15.1.0, SVG Export Plug-In . SVG Version: 6.00 Build 0)  -->
<!DOCTYPE svg PUBLIC "-//W3C//DTD SVG 1.1//EN" "http://www.w3.org/Graphics/SVG/1.1/DTD/svg11.dtd">
<svg version="1.1"
	 id="svg2" xmlns:inkscape="http://www.inkscape.org/namespaces/inkscape" sodipodi:docname="New document 1" inkscape:version="0.48.2 r9819" xmlns:cc="http://creativecommons.org/ns#" xmlns:dc="http://purl.org/dc/elements/1.1/" xmlns:sodipodi="http://sodipodi.sourceforge.net/DTD/sodipodi-0.dtd" xmlns:rdf="http://www.w3.org/1999/02/22-rdf-syntax-ns#" xmlns:svg="http://www.w3.org/2000/svg"
	 xmlns="http://www.w3.org/2000/svg" xmlns:xlink="http://www.w3.org/1999/xlink" x="0px" y="0px" width="1000px" height="1000px"
	 viewBox="0 0 1000 1000" enable-background="new 0 0 1000 1000" xml:space="preserve">
<sodipodi:namedview  bordercolor="#666666" showgrid="false" inkscape:current-layer="layer1" inkscape:window-width="1920" inkscape:cy="-8.1858472" inkscape:pageshadow="2" inkscape:zoom="0.49497475" borderopacity="1.0" pagecolor="#ffffff" inkscape:document-units="px" fit-margin-right="0.5" inkscape:window-maximized="1" inkscape:window-y="-8" inkscape:cx="1268.2181" fit-margin-bottom="0.5" inkscape:pageopacity="0.0" inkscape:window-x="-8" fit-margin-top="0.5" id="base" fit-margin-left="0.5" inkscape:window-height="1028">
	<inkscape:grid  type="xygrid" visible="true" empspacing="5" enabled="true" id="grid2996" snapvisiblegridlinesonly="true">
		</inkscape:grid>
</sodipodi:namedview>
<g id="layer1" transform="translate(-39.499999,287.13782)" inkscape:groupmode="layer" inkscape:label="Layer 1">
	<g id="g3005" transform="matrix(1.7404181,0,0,1.7404181,-29.616725,-527.44586)">
		<path id="rect3000" inkscape:connector-curvature="0" sodipodi:nodetypes="ssssscccssss" fill="#4099FF" d="M71,138.362h512
			c17.174,0,31,13.826,31,31v512c0,17.174-13.826,31-31,31H436.5l-45.82,0.287l-44.18-0.287H71c-17.174,0-31-13.826-31-31v-512
			C40,152.188,53.826,138.362,71,138.362z"/>
		<path id="path3002" inkscape:connector-curvature="0" sodipodi:nodetypes="ccccccccccccccccc" display="none" fill="#FFFFFF" d="
			M346.5,712.362v-222.5h-75v-86.5h75v-66c0-69.186,42.892-112.189,110.454-112.189c40.67,0,68.046,3.189,68.046,3.189v78h-45.821
			c-29.037,0-42.678,10.213-42.678,41v56H522l-11,86.5h-74.5v222.5H346.5z"/>
	</g>
</g>
<path id="bird" fill="#FFFFFF" d="M132.11,605.967c47.689,44.098,170.127,85.83,269.758-11.835
	c-17.916,2.798-32.873-0.596-44.235-11.832c-10.775-10.684-11.368-21.726-5.601-31.771c4.686-8.192,14.573-13.938,24.293-19.938
	c-17.633,3.27-32.667,1.567-46.103-5.304c-18.036-9.222-35.579-18.928-40.497-38.932c11.033-11.608,23.295-21.979,49.841-18.068
	c-24.97-8.342-47.345-19.216-63.548-35.509c-15.78-15.871-17.404-26.189-19.935-38.629c13.782-5.105,28.172-7.758,43.612-6.23
	c-34.911-17.852-49.736-42.398-57.936-69.15c-2.476-8.087-2.924-15.783-1.874-23.675c141.416,53.382,207.646,91.737,244.209,127.713
	c16.451-43.771,54.806-142.905,112.146-176.931c0.271,5.395-1.874,11.214-6.234,17.442c16.977-9.457,30.229-24.595,53.582-24.298
	c-2.688,11.052-10.417,19.896-25.543,25.549c15.256-5.844,30.712-10.796,46.72-13.706c14.848-2.691,14.638,9.021,6.231,14.944
	c-17.052,12.037-35.169,13.531-52.953,19.315c54.527,1.358,99.116,27.18,133.943,83.486c11.571,18.708,19.345,37.418,21.188,57.935
	c23.258,6.529,46.399,7.862,69.772,3.735c6.403-1.14,12.371-2.333,18.067-4.982c-9.092,13.635-19.583,24.835-34.266,29.905
	c-14.04,4.847-28.102,9.57-43.606,9.971c25.244,9.551,53.062,10.081,81.611,8.098c-34.918,33.606-61.645,32.802-88.467,32.399
	c-11.763,49.658-35.81,99.187-86.601,144.534c-66.625,59.481-138.343,87.854-212.435,94.071
	c-69.476,5.823-136.639,5.024-209.958-29.282C212.937,689.56,167.378,654.551,132.11,605.967L132.11,605.967z"/>
</svg>
